HIERARCHY
ROOT Hips
{
	OFFSET 0.00000 0.00000 0.00000
	CHANNELS 6 Xposition Yposition Zposition Zrotation Yrotation Xrotation 
	JOINT LHipJoint
	{
		OFFSET 0 0 0
		CHANNELS 3 Zrotation Yrotation Xrotation
		JOINT LeftHip
		{
			OFFSET 1.23340 -1.80723 0.69510
			CHANNELS 3 Zrotation Yrotation Xrotation
			JOINT LeftKnee
			{
				OFFSET 2.50056 -6.87023 0.00000
				CHANNELS 3 Zrotation Yrotation Xrotation
				JOINT LeftAnkle
				{
					OFFSET 2.85931 -7.85591 0.00000
					CHANNELS 3 Zrotation Yrotation Xrotation
					JOINT LeftToe
					{
						OFFSET 0.21001 -0.57700 2.07823
						CHANNELS 3 Zrotation Yrotation Xrotation
						End Site
						{
							OFFSET 0.00000 -0.00000 1.08338
						}
					}
				}
			}
		}
	}
	JOINT RHipJoint
	{
		OFFSET 0 0 0
		CHANNELS 3 Zrotation Yrotation Xrotation
		JOINT RightHip
		{
			OFFSET -1.40842 -1.80723 0.69510
			CHANNELS 3 Zrotation Yrotation Xrotation
			JOINT RightKnee
			{
				OFFSET -2.54876 -7.00266 0.00000
				CHANNELS 3 Zrotation Yrotation Xrotation
				JOINT RightAnkle
				{
					OFFSET -2.74835 -7.55104 0.00000
					CHANNELS 3 Zrotation Yrotation Xrotation
					JOINT RightToe
					{
						OFFSET -0.22633 -0.62184 2.00890
						CHANNELS 3 Zrotation Yrotation Xrotation
						End Site
						{
							OFFSET -0.00000 -0.00000 1.05493
						}
					}
				}
			}
		}
	}
	JOINT lowerback
	{
		OFFSET 0 0 0
		CHANNELS 3 Zrotation Yrotation Xrotation
		JOINT Chest
		{
			OFFSET -0.02340 2.02740 -0.12728
			CHANNELS 3 Zrotation Yrotation Xrotation
			JOINT Chest2
			{
				OFFSET -0.00862 2.03614 -0.01188
				CHANNELS 3 Zrotation Yrotation Xrotation
				JOINT lowerneck
				{
					OFFSET 0 0 0
					CHANNELS 3 Zrotation Yrotation Xrotation
					JOINT Neck
					{
						OFFSET 0.03380 1.76650 0.27670
						CHANNELS 3 Zrotation Yrotation Xrotation
						JOINT Head
						{
							OFFSET -0.01114 1.80516 -0.21451
							CHANNELS 3 Zrotation Yrotation Xrotation
							End Site
							{
								OFFSET -0.00766 1.81942 -0.10287
							}
						}
					}
				}
				JOINT LeftCollar
				{
					OFFSET 0 0 0
					CHANNELS 3 Zrotation Yrotation Xrotation
					JOINT LeftShoulder
					{
						OFFSET 3.22358 1.39475 0.18630
CHANNELS 3 Zrotation Xrotation Yrotation
						JOINT LeftElbow
						{
OFFSET 0 -5.450770 0.000000
CHANNELS 3 Zrotation Xrotation Yrotation
							JOINT LeftWrist
							{
OFFSET 0 -3.054880 0.000000
CHANNELS 3 Zrotation Xrotation Yrotation
								JOINT lhand
								{
									OFFSET 0 0 0
CHANNELS 3 Zrotation Xrotation Yrotation
									JOINT LFingers
									{
OFFSET 0 -0.638820 0.000000
CHANNELS 3 Zrotation Xrotation Yrotation
										End Site
										{
OFFSET 0 -0.515030 0.000000
										}
									}
								}
								JOINT LThumb
								{
OFFSET 0 0.000000 0.000000
CHANNELS 3 Zrotation Xrotation Yrotation
									End Site
									{
OFFSET 0 -0.522900 0.522900
									}
								}
							}
						}
					}
				}
				JOINT RightCollar
				{
					OFFSET 0 0 0
					CHANNELS 3 Zrotation Yrotation Xrotation
					JOINT RightShoulder
					{
						OFFSET -3.57143 1.14055 0.30691
CHANNELS 3 Zrotation Xrotation Yrotation
						JOINT RightElbow
						{
OFFSET 0 -4.887020 -0.000000
CHANNELS 3 Zrotation Xrotation Yrotation
							JOINT RightWrist
							{
OFFSET 0 -3.226030 0.000000
CHANNELS 3 Zrotation Xrotation Yrotation
								JOINT rhand
								{
									OFFSET 0 0 0
CHANNELS 3 Zrotation Xrotation Yrotation
									JOINT RFingers
									{
OFFSET 0 -0.716290 0.000000
CHANNELS 3 Zrotation Xrotation Yrotation
										End Site
										{
OFFSET 0 -0.577490 0.000000
										}
									}
								}
								JOINT RThumb
								{
OFFSET 0 0.000000 0.000000
CHANNELS 3 Zrotation Xrotation Yrotation
									End Site
									{
OFFSET 0 -0.586310 0.586310
									}
								}
							}
						}
					}
				}
			}
		}
	}
}
MOTION
Frames: 12
Frame Time: 0.008333333333333333
1.650300 18.483800 0.140600 6.182200 59.009700 16.944400 0.000000 0.000000 0.000000 -28.184500 12.985500 -16.981200 0.689500 5.308400 14.790300 0.779300 6.341100 -20.155900 1.375300 -7.421400 -20.970000 0.000000 0.000000 0.000000 8.638100 10.121000 -15.024100 -0.341900 -3.757200 10.394500 1.335800 19.940500 7.524100 -0.057900 1.552700 -4.271100 -1.616300 -6.045400 -10.839200 -0.152900 -7.783800 -2.768400 -0.318800 -3.850000 3.332800 2.048300 0.697600 -17.956200 -4.507000 1.799900 25.314900 -1.717400 0.499400 11.251600 0.000000 0.000000 0.000000 -39.252200 -63.446900 -72.058900 50.456300 -53.177900 26.539000 20.889600 -188.286800 26.784900 0.000000 0.000000 0.000000 -7.125000 0.000000 0.000000 -5.459400 1.709100 -5.318600 0.000000 0.000000 0.000000 -14.724900 -71.956400 23.898500 -38.478300 -47.142000 -17.315300 -27.634700 32.581800 -6.033900 0.000000 0.000000 0.000000 7.125000 0.000000 -0.000000 -0.671200 23.175900 -0.352900
1.697293 18.485300 0.256570 5.252074 58.530104 16.245989 0.000000 0.000000 0.000000 -27.452083 13.015163 -16.609692 0.672300 5.243054 14.603191 0.778555 6.840292 -20.519853 1.416918 -7.528126 -21.289782 0.000000 0.000000 0.000000 9.456805 10.052522 -14.966863 -0.338969 -3.741324 10.350008 1.406729 20.434010 7.934141 -0.025891 1.038352 -2.854230 -1.683700 -6.298303 -11.293280 -0.036225 -8.096432 -3.137535 -0.233400 -3.999223 3.225081 1.684850 0.557497 -17.755968 -5.359399 1.818450 23.170170 -1.930105 0.377403 10.427537 0.000000 0.000000 0.000000 -47.362947 -66.490481 -77.760580 42.316443 -49.383621 20.180568 23.392106 130.587791 30.708728 0.000000 0.000000 0.000000 -7.125000 0.000000 0.000000 -4.511658 -2.838342 -4.744080 0.000000 0.000000 0.000000 -20.571224 -75.962453 18.232930 -42.564170 -49.517501 -20.368764 -26.259557 -1.639009 -2.030976 0.000000 0.000000 0.000000 7.125000 0.000000 0.000000 0.249405 27.715279 0.104825
1.715503 18.487659 0.345631 4.460514 57.978595 15.396430 0.000000 0.000000 0.000000 -26.733676 12.815042 -16.016124 0.669535 5.232607 14.573149 0.776186 7.541864 -21.039420 1.388325 -7.454995 -21.070654 0.000000 0.000000 0.000000 10.236751 9.830173 -14.670252 -0.322062 -3.647552 10.087083 1.478096 20.921122 8.530369 -0.026603 1.053008 -2.894587 -1.702651 -6.136696 -11.432992 -0.229369 -7.864544 -3.246478 -0.394434 -3.881700 3.159199 2.486675 0.648797 -17.063517 -6.166623 1.796440 21.056068 -2.317020 0.366200 9.554906 0.000000 0.000000 0.000000 -51.262046 -67.291899 -81.949929 40.101702 -48.130017 18.514953 24.196677 109.563434 33.797887 0.000000 0.000000 0.000000 -7.125000 0.000000 0.000000 -4.563766 -6.191005 -5.044538 0.000000 0.000000 0.000000 -15.764388 -77.106239 18.112514 -49.901739 -52.955748 -26.095683 -24.541038 -45.861142 1.821916 0.000000 0.000000 0.000000 7.125000 0.000000 0.000000 1.640189 31.979792 0.522815
1.710701 18.495284 0.398286 4.072479 58.835833 15.093751 0.000000 0.000000 0.000000 -26.125881 12.561557 -15.777758 0.654127 5.173166 14.403132 0.753926 7.282950 -20.622542 1.470768 -7.663576 -21.696960 0.000000 0.000000 0.000000 10.825085 9.294144 -14.567434 -0.323793 -3.657382 10.114731 1.454459 20.757519 8.019872 -0.032341 1.160608 -3.190724 -1.920941 -6.034518 -11.319292 -0.083326 -7.707328 -3.557657 -0.070531 -3.800161 2.819588 2.438887 0.647056 -16.939998 -6.170128 1.804362 20.916276 -2.306034 0.370048 9.482977 0.000000 0.000000 0.000000 -38.786842 -66.519052 -73.945398 50.612269 -53.234004 26.665333 21.045821 124.650990 32.399974 0.000000 0.000000 0.000000 -7.125000 0.000000 0.000000 -6.090606 -4.062887 -6.542697 0.000000 0.000000 0.000000 -19.677367 -70.386778 21.350592 -56.734073 -55.374769 -31.638217 -26.989237 -35.215316 -1.598126 0.000000 0.000000 0.000000 7.125000 0.000000 0.000000 -0.319279 28.186253 -0.131028
1.700731 18.509352 0.466595 5.059826 62.080025 16.032592 0.000000 0.000000 0.000000 -25.550776 11.498373 -15.050357 0.602945 4.970522 13.824532 0.732452 5.737794 -19.253333 1.508873 -7.757699 -21.980670 0.000000 0.000000 0.000000 11.182545 7.479982 -14.350123 -0.332855 -3.707734 10.255788 1.314220 19.863501 5.670811 -0.095979 1.998207 -5.500742 -2.311917 -5.494568 -11.191347 -0.410273 -6.935236 -3.448059 -0.076979 -3.415732 2.854965 1.420716 -0.216206 -17.045345 -5.005129 0.574597 20.445809 -1.882138 -0.151298 9.272272 0.000000 0.000000 0.000000 -13.640688 -58.657086 -62.502551 87.865152 -59.979456 58.151360 23.804852 166.058691 25.054863 0.000000 0.000000 0.000000 -7.125000 0.000000 0.000000 -3.497302 2.959172 -3.318640 0.000000 0.000000 0.000000 -24.803469 -51.277877 29.218487 -70.694351 -58.540225 -43.363095 -28.566334 15.742872 -5.279356 0.000000 0.000000 0.000000 7.125000 0.000000 0.000000 -1.397069 23.974233 -0.708341
1.676765 18.521233 0.570578 5.857025 67.832542 17.520755 0.000000 0.000000 0.000000 -24.163608 9.487935 -15.571335 0.636727 5.105383 14.209315 0.699583 3.253076 -17.309179 1.835354 -8.514300 -24.287621 0.000000 0.000000 0.000000 12.179373 5.468257 -13.999245 -0.294227 -3.487827 9.640019 0.980812 17.539478 2.947813 -0.101669 2.056363 -5.661445 -2.030641 -4.625355 -11.030400 -0.528098 -5.808063 -3.410953 -0.181394 -2.852964 2.743225 2.349089 1.011654 -17.985993 -4.864580 2.017531 20.903560 -1.808209 0.599940 9.666620 0.000000 0.000000 0.000000 2.664415 -36.750074 -57.252243 99.388468 -59.664338 68.121470 28.196711 152.888377 26.335980 0.000000 0.000000 0.000000 -7.125000 0.000000 0.000000 -1.032633 0.662179 -1.020588 0.000000 0.000000 0.000000 -20.435004 -24.366341 42.626350 -85.595657 -59.926551 -56.186668 -17.005856 9.306328 -5.977921 0.000000 0.000000 0.000000 7.125000 0.000000 0.000000 7.187627 23.738360 3.714389
1.706262 18.523414 0.674992 8.534252 74.140592 20.694967 0.000000 0.000000 0.000000 -23.062205 7.638784 -15.900558 0.645538 5.139823 14.307764 0.668777 -0.185324 -15.393162 1.992084 -8.849347 -25.325383 0.000000 0.000000 0.000000 12.950308 3.769059 -13.218618 -0.268948 -3.336132 9.215966 0.555313 14.328084 -1.007659 -0.183095 2.755680 -7.599226 -1.897846 -3.211007 -10.506877 -0.437095 -3.967116 -3.033587 0.105957 -1.942904 2.816206 2.660362 1.377332 -18.649181 -5.017160 2.452413 20.532990 -1.849950 0.805290 9.683003 0.000000 0.000000 0.000000 8.713922 -12.372387 -54.554730 87.958949 -59.983365 58.232493 35.105747 148.559106 29.814359 0.000000 0.000000 0.000000 -7.125000 0.000000 0.000000 2.307238 -5.004811 2.502018 0.000000 0.000000 0.000000 -13.055950 -2.546680 46.862282 -67.304540 -57.956876 -40.480492 0.172417 16.103910 -6.927203 0.000000 0.000000 0.000000 7.125000 0.000000 0.000000 19.510865 23.093947 10.926214
1.754544 18.522802 0.736793 21.065358 81.593477 33.799181 0.000000 0.000000 0.000000 -22.428664 4.835183 -16.060209 0.622886 5.050446 14.052600 0.514326 -4.519940 -12.762937 2.005231 -8.876891 -25.410998 0.000000 0.000000 0.000000 13.185329 1.495466 -12.715728 -0.256855 -3.260608 9.005166 0.117332 10.281521 -5.104825 -0.186715 2.782732 -7.674487 -2.073707 -2.640836 -10.147055 -0.531514 -3.189974 -3.113980 0.227317 -1.550657 2.524791 2.217506 1.127688 -18.945887 -3.191495 1.843327 21.666136 -1.226707 0.702620 10.089012 0.000000 0.000000 0.000000 11.294571 7.457393 -44.804441 78.722080 -59.513502 50.249027 37.457549 156.722253 28.965542 0.000000 0.000000 0.000000 -7.125000 0.000000 0.000000 3.822646 -4.838716 4.139893 0.000000 0.000000 0.000000 -3.854797 7.139302 41.719201 -38.785154 -47.325723 -17.543148 -3.203120 20.011207 -8.835781 0.000000 0.000000 0.000000 7.125000 0.000000 0.000000 16.919178 21.259127 10.074312
1.771148 18.517517 0.769441 76.118997 86.718110 89.020598 0.000000 0.000000 0.000000 -21.622026 3.347576 -16.988168 0.687104 5.299433 14.764625 0.242351 -9.222764 -10.176648 1.913526 -8.683532 -24.810383 0.000000 0.000000 0.000000 14.667597 -3.471239 -12.774027 -0.222675 -3.037674 8.383686 -0.017213 9.234373 -6.780546 -0.240513 3.155405 -8.711733 -2.240826 -2.039785 -9.663687 -0.465582 -2.393417 -2.760539 0.496797 -1.160357 2.617866 1.002019 -0.336969 -19.829074 -0.960125 -0.421762 21.589635 -0.558722 -0.180009 10.164420 0.000000 0.000000 0.000000 12.941470 15.037001 -37.530594 65.167063 -57.533857 38.672386 36.518585 158.057031 28.750160 0.000000 0.000000 0.000000 -7.125000 0.000000 0.000000 3.341782 -4.287498 3.588027 0.000000 0.000000 0.000000 -0.841391 8.025996 46.294460 -23.915579 -35.074202 -7.658300 -14.132168 2.141887 -7.472717 0.000000 0.000000 0.000000 7.125000 0.000000 0.000000 9.234423 22.307717 5.102580
1.694226 18.524262 0.754160 151.565743 83.781321 164.463441 0.000000 0.000000 0.000000 -20.644181 1.469517 -17.899150 0.754607 5.548124 15.478809 -0.107366 -13.124906 -7.776984 1.700094 -8.211150 -23.357406 0.000000 0.000000 0.000000 16.710617 -9.097257 -13.788618 -0.194137 -2.837292 7.826155 -0.055983 8.940030 -7.262999 -0.305685 3.554691 -9.827040 -0.969526 -1.177011 -8.787959 -0.592651 -1.388729 -2.416525 -0.214437 -0.663268 2.430348 -0.311443 -2.158328 -19.324465 0.908135 -3.028278 18.946540 -0.037263 -1.304032 9.164560 0.000000 0.000000 0.000000 13.115767 12.558899 -37.828557 50.264767 -53.099933 26.386231 35.977236 -195.594665 27.124375 0.000000 0.000000 0.000000 -7.125000 0.000000 0.000000 3.387009 -2.304199 3.526550 0.000000 0.000000 0.000000 -1.709893 8.517461 48.908674 -22.626924 -33.678184 -6.930295 -14.619182 -7.367290 -6.258464 0.000000 0.000000 0.000000 7.125000 0.000000 0.000000 8.934323 23.528080 4.681644
1.646087 18.533348 0.755612 162.366873 79.701710 175.674531 0.000000 0.000000 0.000000 -20.401482 0.351334 -18.726878 0.749657 5.530360 15.427625 -0.418925 -15.633129 -5.734673 1.618907 -8.022485 -22.782297 0.000000 0.000000 0.000000 17.918436 -12.913103 -14.765204 -0.158719 -2.566654 7.074499 -0.080459 8.619517 -7.490637 -0.329778 3.690568 -10.207797 -0.742597 -0.995969 -9.028511 -0.658869 -1.153191 -2.558988 -0.387431 -0.540344 2.409170 -0.983661 -3.091972 -19.474637 2.338707 -4.434134 18.330989 0.374727 -1.853111 9.040906 0.000000 0.000000 0.000000 6.327414 6.569919 -21.750081 28.187247 -39.278413 10.245684 34.452902 158.259105 24.913879 0.000000 0.000000 0.000000 -7.125000 0.000000 0.000000 2.938246 0.621980 2.910065 0.000000 0.000000 0.000000 -3.101507 6.829437 47.336818 -23.102550 -34.200706 -7.195851 -14.413445 -13.699759 -4.392620 0.000000 0.000000 0.000000 7.125000 0.000000 0.000000 9.191962 25.435293 4.408119
1.662991 18.520672 0.822783 165.299409 78.397724 177.858409 0.000000 0.000000 0.000000 -19.737777 0.150408 -18.061653 0.770152 5.603690 15.638709 -0.546575 -16.639539 -5.051239 1.463236 -7.644376 -21.639316 0.000000 0.000000 0.000000 18.331702 -14.503824 -13.165814 -0.093166 -1.968601 5.418931 -0.076232 8.253384 -7.215143 -0.296424 3.500829 -9.676338 -1.129629 -1.237198 -9.281531 -0.758381 -1.420922 -2.758454 -0.304883 -0.668517 2.349263 -0.890545 -3.043335 -18.809679 2.805818 -4.503081 19.261087 0.516923 -1.805467 9.256284 0.000000 0.000000 0.000000 4.418410 3.301166 -16.643285 23.607753 -34.745462 7.482335 34.889693 -192.368048 28.858498 0.000000 0.000000 0.000000 -7.125000 0.000000 0.000000 2.394054 -3.889144 2.553385 0.000000 0.000000 0.000000 0.779891 4.149548 32.691713 -43.798719 -50.140764 -21.319730 -31.092649 -51.469243 2.654800 0.000000 0.000000 0.000000 7.125000 0.000000 0.000000 -3.657876 33.063703 -1.071731
